<svg xmlns="http://www.w3.org/2000/svg" xmlns:xlink="http://www.w3.org/1999/xlink" viewBox="0 0 724 444.5"><defs><style>.cls-1{fill:none;}.cls-2{clip-path:url(#clip-path);}.cls-3{clip-path:url(#clip-path-3);}.cls-4{fill:#343233;}.cls-5{fill:#747578;}</style><clipPath id="clip-path" transform="translate(-0.25 -0.25)"><rect class="cls-1" width="724.5" height="445"/></clipPath><clipPath id="clip-path-3" transform="translate(-0.25 -0.25)"><rect class="cls-1" x="0.25" y="0.25" width="724" height="444.5"/></clipPath></defs><title>HR_logo_dark</title><g id="Layer_2" data-name="Layer 2"><g id="Layer_1-2" data-name="Layer 1"><g id="dark"><g class="cls-2"><g class="cls-2"><g class="cls-3"><g class="cls-3"><path class="cls-4" d="M724.25,444.75h-123s-77.37-116.11-83.5-125.5c16-1.37,58-7.8,94.5-42.5,12.16,18.33,112,168,112,168" transform="translate(-0.25 -0.25)"/><path class="cls-5" d="M501.25,5.75c103.62,0,160,83.79,160,156.5,0,77.58-61,157.5-160,157.5,0-13.84.07-76.88,0-80,57.87,0,85-47.89,85-83.5,0-52.87-43.47-85.5-85-85.5Z" transform="translate(-0.25 -0.25)"/><polygon class="cls-4" points="501 319.5 501 444 398.5 444 398.5 5.5 501 5.5 501 70.5 501 239.5 501 319.5"/><rect class="cls-5" x="319" y="172.5" width="15" height="102.5"/><polygon class="cls-4" points="319 172.5 319 275 319 438.5 216.5 438.5 216.5 275 216.5 172.5 216.5 0 319 0 319 172.5"/><rect class="cls-5" x="102.5" y="172.5" width="114" height="102.5"/><polygon class="cls-4" points="102.5 172.5 102.5 275 102.5 438.5 0 438.5 0 438 0 0 102.5 0 102.5 172.5"/></g></g></g></g></g></g></g></svg>