<svg xmlns="http://www.w3.org/2000/svg" viewBox="0 0 586.85 401.11"><defs><style>.cls-1,.cls-3{fill:#231f20;}.cls-2{fill:#3d3d3d;}.cls-3{stroke:#231f20;stroke-miterlimit:10;}</style></defs><title>Asset 19</title><g id="Layer_2" data-name="Layer 2"><g id="Layer_1-2" data-name="Layer 1"><rect class="cls-1" x="15.78" width="100.04" height="383.17" rx="12" ry="12"/><rect class="cls-2" x="141.56" y="-7.34" width="100.04" height="383.17" rx="12" ry="12" transform="translate(7.34 375.82) rotate(-90)"/><path class="cls-3" d="M567.41,389.89h0a50.18,50.18,0,0,1-70.27-8.22l-112.28-142a50.18,50.18,0,0,1,8.22-70.27h0c29.61,3.51,48.81-1.2,70.26,8.22l112.29,142A50.17,50.17,0,0,1,567.41,389.89Z"/><rect class="cls-1" x="165.84" y="0.87" width="100.04" height="383.17" rx="12" ry="12"/><path class="cls-3" d="M333.27.79h82.61a0,0,0,0,1,0,0V366.52A17.43,17.43,0,0,1,398.45,384H333.27a17.43,17.43,0,0,1-17.43-17.43V18.22A17.43,17.43,0,0,1,333.27.79Z"/><path class="cls-2" d="M416.38.29s.09,51.92.09,116,.26,116.07.26,116.07,115.67-.16,115.67-116.06C532.4,1.89,416.38.29,416.38.29Zm0,168.41a52.38,52.38,0,1,1,52.37-52.37A52.38,52.38,0,0,1,416.34,168.7Z"/></g></g></svg>